<svg width="100" height="100" viewBox="0 0 100 100" fill="none" xmlns="http://www.w3.org/2000/svg">
<path d="M74.4916 22.2222L70.0472 72.2222L49.9527 77.7777L29.9527 72.2222L25.5083 22.2222H74.4916Z" fill="#525252"/>
<path d="M66.2082 69.0333L70.0249 26.311H50.0249V73.5333L66.2082 69.0333Z" fill="#626262"/>
<path d="M35.7305 44.8555L36.286 50.9666H50.0082V44.8555H35.7305Z" fill="#EBEBEB"/>
<path d="M50.0028 32.4443H34.625L35.1806 38.5554H50.0028V32.4443Z" fill="#EBEBEB"/>
<path d="M50.0027 67.1612V60.7834H49.9527L43.1472 58.9446L42.7305 54.0557H36.5527L37.4083 63.6834L49.9527 67.1723L50.0027 67.1612Z" fill="#EBEBEB"/>
<path d="M57.5305 50.9888L56.8194 58.9388L49.9805 60.7888V67.1666L62.5527 63.6832L62.6471 62.6499L64.086 46.4999L64.236 44.8332L65.3471 32.4221H49.9805V38.5332H58.6194L58.0638 44.811H49.9805V50.9221L57.5305 50.9888Z" fill="white"/>
</svg>
