<svg width="100" height="100" viewBox="0 0 100 100" fill="none" xmlns="http://www.w3.org/2000/svg">
<path d="M40.7418 77.7777C43.1971 77.7763 45.5512 76.7999 47.2868 75.0633C49.0224 73.3266 49.9974 70.9719 49.9974 68.5166V59.2611H40.7418C39.5069 59.2308 38.2784 59.4479 37.1287 59.8996C35.979 60.3513 34.9312 61.0284 34.0471 61.8911C33.163 62.7538 32.4604 63.7847 31.9807 64.923C31.501 66.0613 31.2539 67.2841 31.2539 68.5194C31.2539 69.7547 31.501 70.9775 31.9807 72.1158C32.4604 73.2541 33.163 74.285 34.0471 75.1477C34.9312 76.0104 35.979 76.6875 37.1287 77.1392C38.2784 77.5909 39.5069 77.808 40.7418 77.7777Z" fill="#8C8C8C"/>
<path d="M31.4805 49.9999C31.4819 47.5441 32.4581 45.1894 34.1946 43.4529C35.9311 41.7164 38.2858 40.7402 40.7416 40.7388H49.9971V59.261H40.7416C38.2858 59.2595 35.9311 58.2833 34.1946 56.5469C32.4581 54.8104 31.4819 52.4556 31.4805 49.9999Z" fill="#818181"/>
<path d="M31.4805 31.4833C31.4819 29.0275 32.4581 26.6728 34.1946 24.9363C35.9311 23.1998 38.2858 22.2236 40.7416 22.2222L49.9971 22.2222V40.7388H40.7416C38.2863 40.7388 35.9316 39.7639 34.1949 38.0283C32.4583 36.2927 31.4819 33.9385 31.4805 31.4833Z" fill="#7A7A7A"/>
<path d="M49.9971 22.2223H59.2582C60.4931 22.192 61.7216 22.4091 62.8713 22.8608C64.021 23.3125 65.0688 23.9896 65.9529 24.8523C66.837 25.715 67.5396 26.7459 68.0193 27.8842C68.499 29.0225 68.7461 30.2453 68.7461 31.4806C68.7461 32.7159 68.499 33.9387 68.0193 35.077C67.5396 36.2153 66.837 37.2462 65.9529 38.1089C65.0688 38.9716 64.021 39.6487 62.8713 40.1004C61.7216 40.5521 60.4931 40.7692 59.2582 40.7389H49.9971V22.2223Z" fill="#9B9B9B"/>
<path d="M68.5193 49.9999C68.5193 51.8316 67.9761 53.6221 66.9585 55.1451C65.9409 56.6681 64.4945 57.8551 62.8023 58.556C61.11 59.257 59.2479 59.4404 57.4514 59.083C55.655 58.7257 54.0048 57.8437 52.7096 56.5485C51.4144 55.2533 50.5324 53.6031 50.175 51.8066C49.8177 50.0102 50.0011 48.1481 50.702 46.4558C51.403 44.7636 52.59 43.3172 54.113 42.2995C55.636 41.2819 57.4265 40.7388 59.2582 40.7388C61.7139 40.7402 64.0687 41.7164 65.8052 43.4529C67.5416 45.1894 68.5178 47.5441 68.5193 49.9999Z" fill="#939393"/>
</svg>
