<svg width="100" height="100" viewBox="0 0 100 100" fill="none" xmlns="http://www.w3.org/2000/svg">
<path d="M47.0107 22.4478C41.5168 22.4478 36.1462 24.0769 31.5782 27.1292C27.0102 30.1814 23.4498 34.5197 21.3474 39.5954C19.2449 44.6712 18.6949 50.2563 19.7667 55.6447C20.8385 61.0331 23.4841 65.9826 27.3688 69.8674C31.2536 73.7522 36.2032 76.3977 41.5915 77.4696C46.9799 78.5414 52.5651 77.9913 57.6408 75.8888C62.7165 73.7864 67.0548 70.2261 70.1071 65.658C73.1593 61.09 74.7885 55.7195 74.7885 50.2255C74.7885 42.8584 71.8619 35.793 66.6525 30.5837C61.4432 25.3743 54.3778 22.4478 47.0107 22.4478ZM25.1996 50.5144L46.7218 72.0366C41.0375 71.9604 35.6074 69.6684 31.5876 65.6486C27.5678 61.6288 25.2758 56.1988 25.1996 50.5144ZM51.894 71.4922L25.744 45.3422C26.683 41.2658 28.7741 37.5452 31.7682 34.6239C34.7623 31.7025 38.5332 29.7036 42.6315 28.8652C46.7298 28.0268 50.9827 28.3843 54.8835 29.8952C58.7843 31.406 62.1685 34.0064 64.6329 37.3866L61.6162 40.0533C59.7511 37.3745 57.1856 35.2598 54.2001 33.9402C51.2146 32.6205 47.9239 32.1467 44.6874 32.5704C41.4508 32.9941 38.3929 34.299 35.8478 36.3427C33.3026 38.3864 31.3679 41.0902 30.2551 44.1589L53.0774 66.97C55.8275 65.9712 58.2897 64.3111 60.2468 62.136C62.2039 59.961 63.5957 57.3378 64.2996 54.4977H54.8551V50.2255H68.8274C68.8242 55.1625 67.1483 59.9526 64.0731 63.8148C60.9979 67.677 56.7048 70.3832 51.894 71.4922Z" fill="#616161"/>
</svg>
