<svg width="100" height="100" viewBox="0 0 100 100" fill="none" xmlns="http://www.w3.org/2000/svg">
<path d="M76.7277 47.5221L52.4721 23.2721C52.1407 22.9392 51.7468 22.675 51.313 22.4947C50.8792 22.3145 50.4141 22.2217 49.9443 22.2217C49.4746 22.2217 49.0094 22.3145 48.5756 22.4947C48.1419 22.675 47.7479 22.9392 47.4165 23.2721L42.3776 28.3332L48.7665 34.7221C49.52 34.4659 50.3303 34.4265 51.1051 34.6082C51.8799 34.7899 52.5881 35.1855 53.1491 35.75C53.7101 36.3145 54.1013 37.0251 54.2782 37.801C54.4552 38.5769 54.4107 39.3869 54.1499 40.1388L60.3054 46.2721C61.2231 45.9506 62.2233 45.9536 63.1391 46.2805C64.0549 46.6073 64.8309 47.2383 65.3377 48.0682C65.8444 48.8981 66.0513 49.8767 65.9237 50.8406C65.7962 51.8046 65.3419 52.6957 64.6368 53.3652C63.9316 54.0348 63.0182 54.4422 62.0489 54.5196C61.0796 54.5971 60.1131 54.3398 59.3106 53.7907C58.508 53.2416 57.9181 52.4339 57.6391 51.5024C57.3602 50.5709 57.4091 49.5719 57.7777 48.6721L52.011 42.9277V58.0388C52.8186 58.438 53.4788 59.0832 53.8963 59.8815C54.3138 60.6798 54.4672 61.5901 54.3344 62.4811C54.2016 63.3722 53.7894 64.1981 53.1572 64.84C52.525 65.4819 51.7054 65.9065 50.8165 66.0528C49.9275 66.1991 49.0151 66.0596 48.2105 65.6542C47.4059 65.2488 46.7508 64.5985 46.3394 63.797C45.928 62.9955 45.7816 62.0841 45.9212 61.1941C46.0609 60.3041 46.4794 59.4813 47.1165 58.8443C47.5173 58.4482 47.9908 58.1332 48.511 57.9165V42.6666C47.9894 42.45 47.5156 42.1329 47.1165 41.7332C46.5193 41.1368 46.1131 40.376 45.9498 39.5479C45.7866 38.7197 45.8736 37.8617 46.1999 37.0832L39.8999 30.7832L23.2721 47.411C22.939 47.7429 22.6747 48.1373 22.4944 48.5715C22.314 49.0058 22.2212 49.4713 22.2212 49.9416C22.2212 50.4118 22.314 50.8773 22.4944 51.3116C22.6747 51.7459 22.939 52.1402 23.2721 52.4721L47.5276 76.7277C47.8595 77.0608 48.2539 77.3251 48.6882 77.5054C49.1224 77.6857 49.588 77.7786 50.0582 77.7786C50.5284 77.7786 50.994 77.6857 51.4283 77.5054C51.8625 77.3251 52.2569 77.0608 52.5888 76.7277L76.7277 52.5888C77.3994 51.9168 77.7767 51.0056 77.7767 50.0554C77.7767 49.1053 77.3994 48.1941 76.7277 47.5221Z" fill="#757575"/>
</svg>
