<svg width="100" height="100" viewBox="0 0 100 100" fill="none" xmlns="http://www.w3.org/2000/svg">
<path d="M77.7777 22.2222H22.2222V77.7777H77.7777V22.2222Z" fill="#D1D1D1"/>
<path d="M59.5391 65.6278C60.6502 67.4501 62.1169 68.7945 64.6891 68.7945C66.8558 68.7945 68.2391 67.7167 68.2391 66.2223C68.2391 64.4445 66.8169 63.7945 64.4447 62.7778L63.1391 62.2223C59.3724 60.6167 56.8724 58.6056 56.8724 54.3556C56.8724 50.4667 59.8558 47.4612 64.5169 47.4612C67.8502 47.4612 70.2224 48.6167 71.9447 51.639L67.878 54.2501C66.9836 52.6445 66.0169 52.0278 64.5447 52.0278C63.0724 52.0278 62.0447 53.0001 62.0447 54.2501C62.0447 55.8167 63.0169 56.4723 65.2558 57.4223L66.5613 57.9778C71.0058 59.8834 73.5002 61.8223 73.5002 66.1834C73.5002 70.8834 69.8113 73.4556 64.8502 73.4556C60.0002 73.4556 56.8724 71.1445 55.3391 68.1167L59.5391 65.6278ZM41.1113 66.0779C41.9336 67.5334 42.678 68.7612 44.4724 68.7612C46.1835 68.7612 47.2502 68.0945 47.2502 65.4834V47.7334H52.4724V65.5556C52.4724 70.9612 49.3002 73.4167 44.6947 73.4167C40.5113 73.4167 38.0947 71.2556 36.8613 68.6501L41.1113 66.0779Z" fill="black"/>
</svg>
