<svg width="30" height="30" viewBox="0 0 30 30" fill="none" xmlns="http://www.w3.org/2000/svg">
<path d="M19.9561 13H24.1369V13.7728H22.4809V17.8336H21.6481V13.7728H19.9681L19.9561 13Z" fill="#767676"/>
<path d="M13.0793 13V13.7728H9.71924V15.016H12.4241V15.7864H9.72884V17.0608H13.0889V17.8336H8.89844V13.7728V13H13.0793Z" fill="#767676"/>
<path d="M15.1673 13H14.0801L17.9681 17.836H19.0577L17.1137 15.4216L19.0529 13H17.9681L16.5689 14.7472L15.1673 13Z" fill="#767676"/>
<path d="M16.2809 16.4536L15.7361 15.7792L14.0801 17.8384H15.1697L16.2809 16.4536Z" fill="#767676"/>
<path fill-rule="evenodd" clip-rule="evenodd" d="M8.92722 17.8336L5.0368 13H4V17.8312H4.828V14.032L7.88562 17.8336H8.92722Z" fill="#767676"/>
<path d="M24.3195 17.8C24.2906 17.8008 24.2619 17.7957 24.2351 17.785C24.2082 17.7742 24.1839 17.7581 24.1635 17.7376C24.1238 17.6968 24.1016 17.6421 24.1016 17.5852C24.1016 17.5282 24.1238 17.4736 24.1635 17.4328C24.2053 17.3922 24.2613 17.3698 24.3195 17.3704C24.348 17.3701 24.3762 17.3755 24.4026 17.3862C24.4289 17.397 24.4529 17.4128 24.4731 17.4328C24.4937 17.4522 24.5101 17.4756 24.5212 17.5016C24.5324 17.5276 24.5381 17.5557 24.5379 17.584C24.5384 17.6227 24.5284 17.6608 24.5091 17.6944C24.4884 17.7261 24.4604 17.7524 24.4275 17.7712C24.395 17.7908 24.3575 17.8007 24.3195 17.8Z" fill="#767676"/>
<path d="M25.7369 15.7673H26.1042V17.1833C26.1069 17.3008 26.0779 17.4169 26.0202 17.5193C25.9632 17.6134 25.8797 17.6886 25.7801 17.7353C25.6722 17.7862 25.5539 17.8117 25.4345 17.8097C25.3264 17.8104 25.2192 17.7883 25.1201 17.7449C25.0227 17.7088 24.9388 17.6434 24.8801 17.5577C24.8221 17.4651 24.7929 17.3573 24.7961 17.2481H25.1657C25.1645 17.2969 25.177 17.3452 25.2017 17.3873C25.2245 17.427 25.2589 17.4588 25.3001 17.4785C25.3448 17.5006 25.3943 17.5113 25.4441 17.5097C25.4972 17.5118 25.5497 17.4985 25.5953 17.4713C25.6368 17.4456 25.6694 17.408 25.6889 17.3633C25.7127 17.3063 25.7242 17.245 25.7225 17.1833L25.7369 15.7673Z" fill="#767676"/>
<path d="M27.6158 16.3216C27.613 16.2816 27.6009 16.2427 27.5805 16.2082C27.5601 16.1736 27.5319 16.1442 27.4982 16.1224C27.4189 16.0716 27.3259 16.0465 27.2318 16.0504C27.1638 16.0478 27.096 16.0592 27.0326 16.084C26.9828 16.1037 26.939 16.1359 26.9054 16.1776C26.877 16.2168 26.8611 16.2636 26.8598 16.312C26.8584 16.3504 26.8694 16.3883 26.891 16.42C26.9108 16.4523 26.9379 16.4794 26.9702 16.4992C27.0057 16.5211 27.0435 16.5388 27.083 16.552L27.2078 16.5904L27.3998 16.636C27.4761 16.6538 27.5507 16.6779 27.623 16.708C27.692 16.7374 27.7566 16.7762 27.815 16.8232C27.8712 16.8681 27.9171 16.9246 27.9494 16.9888C27.9847 17.0595 28.002 17.1378 27.9998 17.2168C28.0013 17.3276 27.9695 17.4363 27.9086 17.5288C27.8415 17.6223 27.7491 17.6948 27.6422 17.7376C27.374 17.8352 27.08 17.8352 26.8118 17.7376C26.7016 17.6949 26.6064 17.6206 26.5382 17.524C26.4705 17.424 26.4338 17.3063 26.4326 17.1856H26.7998C26.8034 17.2496 26.8269 17.3108 26.867 17.3608C26.9078 17.4076 26.9598 17.4431 27.0182 17.464C27.0855 17.4868 27.156 17.4981 27.227 17.4976C27.2991 17.499 27.3707 17.4868 27.4382 17.4616C27.4943 17.4413 27.5439 17.4065 27.5822 17.3608C27.6161 17.3186 27.6347 17.2661 27.635 17.212C27.636 17.1636 27.6189 17.1165 27.587 17.08C27.5511 17.0426 27.5078 17.0132 27.4598 16.9936C27.397 16.9692 27.3329 16.9484 27.2678 16.9312L27.0278 16.8736C26.8814 16.8415 26.7448 16.7749 26.6294 16.6792C26.5805 16.6358 26.542 16.5821 26.5167 16.5218C26.4913 16.4616 26.4798 16.3965 26.483 16.3312C26.4813 16.22 26.5158 16.1114 26.5814 16.0216C26.6499 15.9284 26.743 15.8561 26.8502 15.8128C26.9715 15.761 27.1024 15.7357 27.2342 15.7384C27.3653 15.7354 27.4955 15.7608 27.6158 15.8128C27.7182 15.8575 27.8069 15.9288 27.8726 16.0192C27.936 16.1063 27.9697 16.2115 27.9686 16.3192L27.6158 16.3216Z" fill="#767676"/>
</svg>
