<svg width="100" height="100" viewBox="0 0 100 100" fill="none" xmlns="http://www.w3.org/2000/svg">
<path d="M50.0028 54.9001C50.9722 54.9012 51.9201 54.6148 52.7267 54.077C53.5332 53.5393 54.1621 52.7744 54.5338 51.8791C54.9055 50.9838 55.0034 49.9984 54.8149 49.0476C54.6265 48.0967 54.1602 47.2231 53.4752 46.5372C52.7901 45.8514 51.917 45.3842 50.9664 45.1947C50.0157 45.0051 49.0302 45.1019 48.1345 45.4726C47.2389 45.8433 46.4733 46.4713 45.9346 47.2772C45.3959 48.0831 45.1084 49.0307 45.1084 50.0001C45.1077 50.6433 45.2337 51.2804 45.4794 51.8748C45.725 52.4693 46.0854 53.0095 46.54 53.4646C46.9945 53.9197 47.5344 54.2807 48.1285 54.527C48.7227 54.7733 49.3596 54.9001 50.0028 54.9001Z" fill="#B9B9B9"/>
<path d="M50.0026 60.0335C64.5137 60.0335 76.2804 55.5446 76.2804 50.0001C76.2804 44.4557 64.5137 39.9668 50.0026 39.9668C35.4915 39.9668 23.7192 44.4612 23.7192 50.0001C23.7192 55.539 35.4859 60.0335 50.0026 60.0335Z" stroke="#B9B9B9" stroke-width="5"/>
<path d="M41.3084 55.0166C48.5695 67.5888 58.3417 75.5333 63.1417 72.761C67.9417 69.9888 65.9473 57.5555 58.6973 44.9833C51.4473 32.411 41.6584 24.4666 36.8584 27.2388C32.0584 30.011 34.0528 42.4499 41.3084 55.0166Z" stroke="#B9B9B9" stroke-width="5"/>
<path d="M41.3085 44.9835C34.0529 57.5557 32.0585 69.9835 36.864 72.7613C41.6696 75.539 51.4418 67.589 58.6973 55.0168C65.9529 42.4446 67.9473 30.0168 63.1418 27.239C58.3362 24.4613 48.5696 32.4113 41.3085 44.9835Z" stroke="#B9B9B9" stroke-width="5"/>
</svg>
