<svg width="100" height="100" viewBox="0 0 100 100" fill="none" xmlns="http://www.w3.org/2000/svg">
<path d="M49.9999 33.3389C42.5925 33.3389 37.9629 37.0426 36.1111 44.45C38.8888 40.7463 42.1296 39.3592 45.8333 40.2889C47.9444 40.8166 49.4555 42.35 51.1277 44.0444C53.8499 46.8 57.0055 50.0055 63.8888 50.0055C71.2962 50.0055 75.9259 46.3018 77.7777 38.8944C74.9999 42.5981 71.7592 43.987 68.0555 43.0611C65.9444 42.5055 64.4333 41 62.7611 39.3C60.0388 36.5389 56.8833 33.3389 49.9999 33.3389ZM36.1111 50.0055C28.7036 50.0055 24.074 53.7092 22.2222 61.1166C24.9999 57.4129 28.2407 56.0241 31.9444 56.95C34.0555 57.4778 35.5666 59.0111 37.2388 60.7055C39.9611 63.4666 43.1166 66.6722 49.9999 66.6722C57.4074 66.6722 62.037 62.9685 63.8888 55.5611C61.1111 59.2648 57.8703 60.6537 54.1666 59.7278C52.0555 59.1722 50.5444 57.6666 48.8722 55.9666C46.1499 53.2 42.9944 50.0055 36.1111 50.0055Z" fill="#848484"/>
</svg>
