<svg width="100" height="100" viewBox="0 0 100 100" fill="none" xmlns="http://www.w3.org/2000/svg">
<path d="M28.5359 55.4112C29.6048 55.4112 30.6497 55.0943 31.5385 54.5006C32.4273 53.9069 33.1202 53.063 33.5295 52.0756C33.9388 51.0881 34.0461 50.0015 33.838 48.9531C33.6299 47.9047 33.1156 46.9415 32.3602 46.1853C31.6048 45.4291 30.6421 44.9138 29.5939 44.7046C28.5457 44.4954 27.459 44.6017 26.4712 45.01C25.4833 45.4183 24.6387 46.1102 24.0441 46.9984C23.4494 47.8867 23.1315 48.9312 23.1304 50.0001C23.1296 50.7104 23.2689 51.4139 23.5403 52.0704C23.8116 52.7269 24.2096 53.3235 24.7117 53.826C25.2137 54.3285 25.8098 54.7272 26.466 54.9992C27.1222 55.2712 27.8256 55.4112 28.5359 55.4112Z" fill="#888888"/>
<path d="M67.2862 77.7777C68.3556 77.7788 69.4012 77.4627 70.2909 76.8694C71.1806 76.2761 71.8743 75.4322 72.2843 74.4446C72.6943 73.4569 72.8021 72.3699 72.5941 71.3209C72.3862 70.272 71.8718 69.3083 71.1161 68.5518C70.3603 67.7952 69.3971 67.2799 68.3484 67.0708C67.2997 66.8618 66.2125 66.9685 65.2245 67.3775C64.2364 67.7865 63.3918 68.4793 62.7976 69.3684C62.2034 70.2574 61.8862 71.3028 61.8862 72.3721C61.8862 73.8048 62.455 75.1789 63.4675 76.1924C64.4801 77.206 65.8536 77.7762 67.2862 77.7777Z" fill="#BABABA"/>
<path d="M67.2859 33.0333C68.355 33.0333 69.4002 32.7163 70.2891 32.1223C71.178 31.5283 71.8709 30.6841 72.28 29.6963C72.6891 28.7086 72.7962 27.6217 72.5876 26.5732C72.379 25.5246 71.8642 24.5614 71.1082 23.8054C70.3522 23.0494 69.3891 22.5346 68.3405 22.326C67.2919 22.1175 66.205 22.2245 65.2173 22.6336C64.2296 23.0428 63.3853 23.7356 62.7914 24.6246C62.1974 25.5135 61.8804 26.5586 61.8804 27.6277C61.8804 29.0614 62.4499 30.4363 63.4636 31.45C64.4774 32.4638 65.8523 33.0333 67.2859 33.0333Z" fill="#3F3F3F"/>
<path d="M54.3694 36.6333C57.5859 36.6374 60.6935 37.7987 63.1243 39.9052C65.5551 42.0116 67.1467 44.9224 67.6083 48.1055H76.8694C76.4531 43.0217 74.315 38.232 70.8083 34.5278C69.6558 35.1088 68.3767 35.3939 67.0865 35.3573C65.7963 35.3207 64.5355 34.9636 63.4178 34.3182C62.3 33.6728 61.3604 32.7594 60.6838 31.6602C60.0071 30.5611 59.6146 29.3109 59.5416 28.0222C57.8459 27.6276 56.1105 27.4281 54.3694 27.4278C51.0477 27.4221 47.7657 28.1506 44.7583 29.5611L49.3916 37.5944C50.98 36.9522 52.6783 36.6258 54.3916 36.6333H54.3694Z" fill="#888888"/>
<path d="M40.9973 50.0001C40.9957 47.9745 41.4557 45.9751 42.3423 44.1539C43.2288 42.3326 44.5187 40.7372 46.114 39.489L41.464 31.4612C40.3666 32.2314 39.337 33.0937 38.3862 34.039C35.7455 36.6692 33.8001 39.9147 32.7251 43.4834C33.8121 44.1861 34.7057 45.1499 35.3245 46.2868C35.9433 47.4236 36.2675 48.6974 36.2675 49.9917C36.2675 51.2861 35.9433 52.5598 35.3245 53.6967C34.7057 54.8336 33.8121 55.7973 32.7251 56.5001C33.8001 60.0688 35.7455 63.3143 38.3862 65.9445C39.3342 66.8995 40.3641 67.7695 41.464 68.5445L46.0973 60.5167C44.5059 59.2648 43.2199 57.6675 42.3364 55.8457C41.4528 54.0238 40.995 52.0249 40.9973 50.0001Z" fill="#BABABA"/>
<path d="M67.6085 51.8945C67.3223 53.9005 66.584 55.8152 65.4493 57.494C64.3147 59.1727 62.8133 60.5717 61.0587 61.5852C59.3041 62.5987 57.3422 63.2002 55.321 63.3442C53.2999 63.4883 51.2724 63.1711 49.3918 62.4168L44.7529 70.4445C47.7612 71.8588 51.0454 72.5892 54.3696 72.5834C56.1125 72.5829 57.8497 72.3834 59.5474 71.989C59.6116 70.6964 59.9985 69.4405 60.6728 68.3358C61.3471 67.2312 62.2873 66.313 63.4075 65.665C64.5278 65.017 65.7925 64.6599 67.0863 64.6263C68.38 64.5926 69.6616 64.8835 70.814 65.4723C74.3174 61.767 76.4516 56.9772 76.864 51.8945H67.6085Z" fill="#3F3F3F"/>
</svg>
