<svg width="100" height="100" viewBox="0 0 100 100" fill="none" xmlns="http://www.w3.org/2000/svg">
<path d="M22.7778 41.6861C22.7778 41.6861 21.4278 40.7083 23.05 39.4083L26.8333 36.025C27.1132 35.7182 27.501 35.5318 27.9153 35.5048C28.3297 35.4779 28.7384 35.6126 29.0556 35.8805L63.9444 62.3083V74.9861C63.9444 74.9861 63.9444 76.975 61.3722 76.7527L22.7778 41.6861Z" fill="#727272"/>
<path d="M31.7498 49.8528L22.7776 58.0361C22.7776 58.0361 21.8553 58.725 22.7776 59.9528L26.9553 63.7528C26.9553 63.7528 27.9498 64.8194 29.4164 63.6083L38.9553 56.3861L31.7498 49.8528Z" fill="#5B5B5B"/>
<path d="M47.5444 49.9249L64.05 37.3193L63.9444 24.7416C63.9444 24.7416 63.2388 21.9638 60.8888 23.3971L38.9277 43.3971L47.5444 49.9249Z" fill="#5D5D5D"/>
<path d="M61.372 76.7694C61.6383 77.0521 61.973 77.2615 62.3437 77.3773C62.7145 77.493 63.1088 77.5114 63.4887 77.4305L76.3498 71.0916C78.0165 69.9805 77.7665 68.5805 77.7665 68.5805V30.7361C77.7665 29.0694 76.0665 28.5138 76.0665 28.5138L64.9165 23.125C62.4831 21.6194 60.8887 23.3972 60.8887 23.3972C60.8887 23.3972 62.9387 21.9194 63.9442 24.7416V74.7416C63.9441 75.0836 63.8682 75.4213 63.722 75.7305C63.4276 76.3194 62.7942 76.875 61.2664 76.6416L61.372 76.7694Z" fill="#848484"/>
</svg>
