<svg width="173" height="255" viewBox="0 0 173 255" fill="none" xmlns="http://www.w3.org/2000/svg">
<path fill-rule="evenodd" clip-rule="evenodd" d="M161.44 182.736C161.44 181.026 159.073 177.99 159.069 176.441C161.059 176.085 162.722 173.389 162.281 171.701C161.505 171.107 159.47 169.938 158.628 169.392C153.5 169.548 155.449 162.411 154.868 158.783C154.284 155.234 153.85 151.522 152.995 147.953C151.476 145.097 150.763 141.895 149.311 139.053C148.663 138.111 147.615 137.248 147.301 136.154C144.125 132.683 139.753 130.603 136.154 127.664C137.551 127.217 137.458 125.332 137.367 124.123C137.692 122.544 137.345 120.564 135.906 119.675C135.42 118.09 133.294 117.536 132.051 118.546C131.234 114.885 128.04 112.664 124.693 111.305C124.696 111.294 124.699 111.284 124.702 111.273C121.327 109.933 117.282 109.265 113.914 110.018C115.692 90.2043 100.522 89.4769 92.8235 91.142C88.8856 91.9937 82.977 94.6453 81.6348 98.3315C80.877 100.413 78.7023 107.124 78.3928 109.265C72.5138 105.909 65.6984 101.484 60.5992 108.24C59.5782 109.417 58.4483 110.292 56.9204 110.696C52.15 111.935 45.8183 111.976 43.1069 116.841C41.4863 119.855 42.9438 121.841 42.5084 124.856C21.0345 139.942 3.08924 195.517 7.11853 221.372C8.08783 230.625 12.8202 247.002 24.501 244.96C30.4587 251.479 130.457 251.479 140.768 244.96C149.256 247.181 157.88 243.743 161.44 235.611C165.96 224.46 161.17 212.417 160.321 200.977C159.805 198.089 159.038 195.797 158.628 192.84C158.457 191.608 159.046 189.558 158.628 188.422C158.825 187.683 161.44 184.446 161.44 182.736Z" fill="#FFFFE3"/>
<path fill-rule="evenodd" clip-rule="evenodd" d="M114.172 103.614C114.408 104.626 114.192 105.767 114.231 106.805C114.269 107.797 114.386 108.784 114.559 109.762C116.372 108.808 118.514 108.685 120.581 108.992C123.253 109.389 126.346 110.269 128.441 112.055C128.958 112.496 129.386 113.019 129.745 113.595C130.176 114.286 130.451 115.066 131.133 115.562C132.189 116.328 133.498 116.624 134.513 117.473C135.548 118.339 136.191 119.633 136.327 120.968C136.399 121.679 136.282 122.343 136.147 123.036C136.026 123.66 136.085 123.916 136.25 124.517C136.378 124.988 136.133 125.523 135.732 125.783C136.591 126.373 137.439 126.982 138.272 127.615C143.127 131.301 147.232 135.895 150.078 141.302L150.147 141.436L150.227 141.597C150.92 143.023 152.735 147.19 152.96 148.127C153.121 148.616 153.277 149.107 153.422 149.601C153.806 150.911 154.131 152.237 154.4 153.574L154.472 153.938C154.691 155.061 155.067 156.391 155.007 157.588C155.637 160.855 156.195 164.135 156.672 167.43C156.734 167.862 156.562 168.212 156.296 168.445C156.933 168.547 157.566 168.673 158.193 168.8L158.557 168.877L158.739 168.917C160.044 169.212 161.331 169.64 162.186 170.736C163.107 171.922 163.126 173.446 162.2 174.64C161.415 175.655 160.267 176.137 159.069 176.441C158.833 176.5 158.594 176.555 158.355 176.603C158.195 176.637 158.089 176.418 158.241 176.333L158.495 176.193L158.842 176.002C159.745 175.504 160.682 174.942 161.182 174.044C161.861 172.825 161.324 171.696 160.16 171.077C159.185 170.558 157.98 170.425 156.897 170.248L156.451 170.174C155.319 169.993 154.165 169.876 153.023 170.005C152.024 170.119 151.012 170.46 150.205 171.07L150.13 171.129L150.053 171.194C149.345 171.808 148.327 173.186 149.662 173.583C150.682 173.885 151.926 173.81 152.998 173.869L153.137 173.877C154.035 173.938 154.973 173.938 155.881 174.046C156.207 174.084 156.528 174.137 156.843 174.211C157.745 174.425 157.434 175.625 156.64 175.71C156.446 175.731 156.247 175.741 156.048 175.746C155.529 176.137 154.81 176.314 154.196 176.557C153.608 176.79 153.019 177.02 152.425 177.246C152.937 177.269 153.448 177.312 153.957 177.375C154.122 177.394 154.124 177.616 153.957 177.633C152.731 177.758 151.506 177.893 150.285 178.064C148.394 178.326 146.516 178.677 144.68 179.211C143.338 179.604 142.013 180.071 140.727 180.617L140.338 180.784L140.178 180.854C139.011 181.36 137.502 181.952 136.831 183.066C136.481 183.648 136.327 184.546 136.821 185.102C137.35 185.701 138.457 185.632 139.198 185.662L139.257 185.664C140.825 185.74 142.394 185.751 143.964 185.696C147.253 185.58 150.545 185.22 153.775 184.588C154.371 184.472 154.629 185.366 154.029 185.506C150.218 186.391 146.366 186.877 142.457 186.9L142.029 186.901C140.506 187.192 139.012 187.626 137.531 188.116L137.235 188.215C136.361 188.511 134.867 188.805 134.351 189.673C134.009 190.25 134.129 190.646 134.468 190.914C135.063 191.385 136.331 191.474 136.948 191.497C139.419 191.59 141.893 191.607 144.367 191.554C145.603 191.527 146.839 191.483 148.075 191.419C149.284 191.356 150.574 191.176 151.779 191.292C152.296 191.343 152.47 192.104 151.908 192.246C150.423 192.622 148.757 192.589 147.223 192.637L147.046 192.643C145.398 192.702 143.749 192.728 142.101 192.723C140.686 192.718 139.272 192.689 137.859 192.637L136.61 192.588L136.389 192.577C135.723 192.541 135.043 192.465 134.453 192.19C133.908 193.104 134.315 194.327 135.019 195.05C135.688 195.739 136.654 196.077 137.579 196.289C137.666 196.308 137.753 196.327 137.839 196.344C139.872 196.758 141.942 196.722 143.844 197.656C145.443 198.442 146.907 199.753 148.698 200.063C150.3 200.342 151.464 199.637 152.317 198.33C152.364 198.259 152.411 198.187 152.455 198.115C153.127 197.033 153.61 195.841 154.318 194.78C154.68 194.239 155.087 193.719 155.586 193.296C155.81 193.104 157.377 192.271 157.622 192.022C158.677 190.939 157.743 188.663 158.018 187.306C158.338 185.727 159.727 185.172 160.559 183.948C162.141 181.619 157.802 179.438 159.099 176.891C159.116 176.859 159.137 176.836 159.165 176.821C159.279 176.76 159.461 176.836 159.45 176.986C159.306 178.884 161.115 180.19 161.768 181.834C162.511 183.705 161.324 184.838 160.111 186.087C158.556 187.691 159.65 189.488 159.304 191.419C159.259 191.672 159.186 191.896 159.092 192.095C159.358 192.26 159.563 192.533 159.608 192.915C160.141 197.437 160.714 201.946 161.65 206.407L161.85 207.354L162.118 208.619C162.785 211.781 163.408 214.955 163.526 218.188C163.898 220.916 164.045 223.666 163.825 226.412C163.158 234.771 158.486 243.517 150 246.083C148.035 246.677 145.952 246.831 143.936 246.415C143.246 246.273 142.278 245.96 141.41 245.487C141.461 246.044 141.502 246.601 141.519 247.157C141.806 247.476 141.935 247.957 141.772 248.369C141.08 248.141 140.451 247.78 139.884 247.287L139.791 247.203C139.455 245.955 139.357 244.589 139.308 243.274L139.295 242.9C139.282 242.536 139.274 242.179 139.261 241.831C139.189 239.66 139.24 237.485 139.352 235.317L139.434 233.72C139.623 229.997 139.777 226.283 139.673 222.549C139.555 218.252 139.187 213.974 138.727 209.701C138.488 207.496 138.218 205.297 137.941 203.096C137.719 201.325 137.347 199.419 137.341 197.593C135.919 197.288 134.522 196.705 133.648 195.511C132.72 194.245 132.583 192.626 133.407 191.328C132.611 190.238 133.263 189.211 134.248 188.517C132.735 187.67 131.892 185.358 131.668 183.749C131.516 182.646 131.468 180.995 131.938 179.755C131.263 179.778 130.587 179.848 129.911 179.964C129.129 180.101 128.362 180.302 127.605 180.552L127.222 180.678C127.029 180.743 126.812 180.819 126.596 180.909C127.963 183.17 126.207 185.22 123.955 185.806C123.526 185.918 123.089 185.996 122.647 186.059C121.652 186.197 120.636 186.239 119.649 186.33C117.761 186.503 115.861 186.751 113.966 186.831C113.55 186.85 113.282 186.655 113.155 186.385C113.151 186.381 113.149 186.378 113.149 186.374C113.104 186.302 113.074 186.226 113.064 186.146C113.07 186.152 113.079 186.157 113.085 186.161C112.994 185.653 113.299 185.036 113.966 184.963C116.702 184.654 119.476 184.639 122.22 184.413L122.396 184.398C123.257 184.324 124.272 184.187 124.954 183.642C125.588 183.134 125.645 182.475 125.391 181.879C125.387 181.894 125.383 181.91 125.381 181.925C125.362 182.044 125.199 182.04 125.146 181.957C124.988 181.716 124.948 181.479 124.988 181.251C124.798 181.031 124.568 180.837 124.318 180.687C123.213 180.015 121.76 179.831 120.503 179.632C119.127 179.415 117.742 179.315 116.353 179.25C113.622 179.121 110.881 179.343 108.194 179.833C108.082 179.852 108.036 179.696 108.146 179.66C109.193 179.313 110.265 179.021 111.348 178.791C111.323 178.787 111.298 178.783 111.272 178.776C111.177 178.753 111.11 178.637 111.142 178.544C111.146 178.529 111.152 178.514 111.158 178.502C110.698 178.29 110.506 177.58 111.063 177.293C112.802 176.394 114.843 175.988 116.751 175.619C118.582 175.266 120.433 175.018 122.286 174.799C125.419 174.431 128.835 174.439 131.85 173.45L131.974 173.408C133.201 172.985 134.667 172.127 134.753 170.677C134.879 168.485 131.624 169.056 130.267 169.109C126.556 169.251 122.848 169.509 119.153 169.906C118.398 169.986 117.644 170.068 116.89 170.153C115.734 170.282 114.577 170.417 113.423 170.561C112.779 170.641 112.12 170.747 111.456 170.849C111.249 170.899 111.046 170.935 110.844 170.954C110.829 170.956 110.816 170.952 110.806 170.946C109.84 171.081 108.87 171.184 107.928 171.155C107.82 171.153 107.753 170.984 107.867 170.933C109.084 170.417 110.438 170.113 111.796 169.874C112.637 169.247 113.653 168.743 114.488 168.257C115.633 167.59 116.945 166.607 118.244 166.207C118.829 165.747 119.493 165.377 120.103 165.125C119.928 164.853 119.865 164.474 119.896 164.155C120.013 163.012 120.927 162.373 121.984 162.149C122.311 162.082 122.689 162.031 123.093 162.012C123.101 161.799 123.196 161.589 123.407 161.433L123.47 161.386L123.514 161.35C124.223 160.774 125.631 159.152 123.936 159.034C123.036 158.97 122.275 159.63 121.559 160.076C120.072 161.004 118.633 161.05 116.934 160.82L116.171 160.71L116.044 160.693C114.816 160.532 113.57 160.51 112.884 161.762C112.149 163.103 111.892 164.324 110.408 165.062C108.991 165.766 107.417 165.905 106.115 166.873C104.721 167.908 103.673 169.363 102.532 170.652C100.016 173.492 97.1366 176.001 94.1704 178.36L93.6427 178.778C90.9111 180.938 88.0914 183.064 85.0331 184.728C85.0119 184.738 84.9906 184.743 84.9718 184.743C84.8894 184.734 84.8279 184.629 84.9021 184.557C88.4746 181.084 92.6535 178.269 96.323 174.89C97.9497 173.391 99.4983 171.814 100.988 170.179C102.289 168.743 103.443 167.131 104.96 165.909C105.697 165.315 106.494 164.861 107.385 164.544C108.218 164.246 109.151 164.098 109.918 163.641C111.42 162.75 111.275 160.636 112.777 159.676C114.065 158.853 115.634 159.154 117.062 159.349L117.232 159.372C118.158 159.495 119.115 159.598 119.998 159.233C120.872 158.871 121.576 158.195 122.457 157.836C123.684 157.331 125.425 157.451 126.055 158.802C126.657 160.091 125.835 161.257 124.876 162.113C126.184 162.35 127.331 162.982 127.428 164.271C128.387 164.239 129.344 164.206 130.303 164.172C133.644 164.056 137 163.832 140.343 163.891C140.267 163.55 140.233 163.2 140.229 162.843C140.227 162.644 140.235 162.445 140.25 162.242C140.275 161.896 140.503 161.686 140.842 161.65L141.596 161.57L141.849 161.545C143.263 161.411 144.845 161.383 145.922 162.318C146.501 162.824 146.968 163.986 146.685 164.762C147.344 164.988 147.972 165.277 148.544 165.643C149.679 165.262 150.87 165.305 152.011 165.702L152.147 165.75C152.957 166.048 154.107 166.612 154.547 167.417C153.478 160.164 152.036 152.973 150.224 145.868C149.068 143.031 147.606 140.319 145.834 137.817C141.37 131.51 134.938 127.173 129.163 122.187C128.653 122.748 128.104 123.282 127.591 123.796L127.373 124.015C126.327 125.075 125.236 126.088 124.122 127.074C121.791 129.135 119.339 131.037 116.904 132.969C111.995 136.865 107.557 141.002 103.864 146.088C103.798 146.18 103.614 146.126 103.665 146.004C106.198 139.981 111.448 135.403 116.218 131.154C118.726 128.92 121.293 126.739 123.705 124.4C124.829 123.309 125.918 122.181 126.946 120.998L127.201 120.701C127.873 119.914 129.446 117.512 130.486 119.245C130.704 119.608 130.694 120.071 130.486 120.434C130.19 120.95 129.815 121.442 129.405 121.914C130.863 122.707 132.291 123.545 133.687 124.432C133.607 124.004 133.627 123.532 133.702 123.06L133.726 122.91L133.828 122.324C133.974 121.46 134.049 120.657 133.501 119.815C132.816 118.761 131.525 118.433 130.496 117.824C129.311 117.122 128.691 116.183 128.057 114.992C126.841 112.711 124.096 111.796 121.736 111.062L121.439 110.97C119.258 110.294 116.899 109.932 114.719 110.582C114.923 111.534 115.191 112.473 115.525 113.387C115.881 114.361 116.694 115.443 116.611 116.495C116.554 117.222 115.681 118 114.957 117.444C113.932 116.657 113.727 115.375 113.452 114.154C113.186 112.973 113.017 111.763 112.944 110.555C112.875 109.39 112.929 108.227 113.073 107.07L113.183 106.221L113.209 106.023C113.329 105.165 113.507 104.264 113.99 103.591C114.037 103.526 114.15 103.524 114.172 103.614ZM84.4189 98.7863C84.4343 98.855 84.4451 98.9229 84.4548 98.9907C84.5254 99.2803 84.5518 99.5586 84.5431 99.8382C84.5473 99.9391 84.5399 100.04 84.5211 100.14C84.4833 100.469 84.4041 100.807 84.297 101.176C84.069 101.962 83.8079 102.738 83.5161 103.502C82.9394 105.014 82.2585 106.456 81.4168 107.839C79.8963 110.337 77.9634 112.41 75.6847 114.202C76.1171 114.559 76.5399 114.93 76.9635 115.295C79.0109 117.057 81.0029 118.9 82.9324 120.791C86.359 124.15 89.7166 127.571 92.9955 131.075C94.6128 132.803 96.2 134.553 97.7786 136.315L97.8304 136.374L97.8863 136.441C98.4468 137.119 99.5674 138.737 100.403 138.477C100.826 138.345 101.27 137.715 101.558 137.415L102.088 136.862C102.264 136.677 102.439 136.491 102.611 136.303C105.695 132.923 108.613 129.413 111.352 125.745C112.689 123.955 113.982 122.131 115.227 120.276C115.867 119.322 116.495 118.36 117.111 117.39C117.706 116.451 118.188 115.443 119.065 114.742C119.709 114.228 120.601 114.7 120.439 115.542C120.184 116.869 119.265 117.992 118.542 119.113C117.816 120.24 117.073 121.356 116.313 122.461C114.851 124.587 113.325 126.668 111.744 128.708C110.383 130.464 108.963 132.176 107.505 133.852L107.106 134.309C105.537 136.098 103.997 137.997 102.264 139.63C100.712 141.092 99.0166 140.666 97.6026 139.245C95.8142 137.448 94.1539 135.505 92.4331 133.643C88.9945 129.921 85.52 126.228 82.0096 122.574L80.8556 121.372C79.5101 119.967 78.17 118.553 76.865 117.113L76.6966 116.926C75.2083 115.251 73.695 113.153 71.5791 112.301C71.4261 112.24 71.4823 112.022 71.6476 112.053C73.002 112.303 74.1327 112.986 75.1848 113.802C76.1304 112.236 76.9742 110.586 77.7099 108.898L77.2379 108.693C73.861 107.233 70.0549 105.761 66.4295 105.998C64.9683 106.093 63.4094 106.647 62.4006 107.744C61.4871 108.738 61.0309 110.079 60.1926 111.137C59.2324 112.35 57.98 112.895 56.443 112.945L55.6957 112.967C54.8361 112.995 54.0117 113.04 53.1399 113.23C50.7775 113.742 48.2868 114.573 46.3056 115.993C45.5868 116.508 44.8449 117.216 44.4973 117.996C44.1528 118.769 44.0537 119.673 44.0201 120.507C44.0038 120.914 44.1257 121.451 44.0239 121.84C44.0355 121.795 44.0408 121.819 44.0423 121.866C44.359 122.115 44.5747 122.531 44.5981 122.945C46.573 121.915 48.6175 121.012 50.7016 120.199C53.0222 119.293 55.4148 118.567 57.8078 117.88C60.1499 117.208 62.6015 116.93 64.989 116.45C65.293 116.389 65.3987 116.8 65.1154 116.909C62.6059 117.873 60.1778 119.016 57.6475 119.923C55.1184 120.83 52.6081 121.812 50.1523 122.903C45.4056 125.012 40.8204 127.696 37.0808 131.338C33.4284 134.895 30.6111 139.216 27.991 143.561C25.3523 147.936 22.9973 152.47 20.8983 157.128C16.7461 166.343 13.6324 176.031 11.5825 185.928C9.58748 195.558 8.47283 205.532 8.84402 215.376C9.02022 220.051 9.59107 224.729 10.9187 229.226C11.5529 231.374 12.3468 233.473 13.3499 235.477C14.4078 237.589 15.833 239.471 16.7989 241.62C16.8783 241.796 16.9087 241.966 16.9043 242.124C21.024 245.694 27.4723 243.288 31.9309 241.156C42.1901 236.249 52.2591 230.878 61.8295 224.715C71.2753 218.633 80.2267 211.844 88.9669 204.798C88.2908 204.1 87.6948 203.318 87.1711 202.61C86.0894 201.148 85.276 199.491 84.7161 197.762C84.0612 195.737 83.8582 193.571 84.0443 191.455L84.0971 190.857C84.2752 188.859 84.4809 186.832 84.919 184.88C84.923 184.855 84.9422 184.844 84.9633 184.844C84.9842 184.844 85.0056 184.857 85.014 184.88C86.195 188.661 86.2901 192.725 87.6166 196.458C88.1511 197.958 88.9793 199.408 89.9725 200.653C90.4014 201.192 90.9042 201.659 91.4173 202.116C91.4514 201.883 91.4976 201.653 91.5673 201.427L91.6227 201.248C91.6914 201.03 91.7765 200.789 91.8948 200.575C91.7279 200.526 91.5654 200.474 91.4049 200.414C91.2779 200.368 91.2504 200.163 91.4049 200.129C91.8253 200.032 92.2584 199.983 92.6999 199.962C92.7697 199.951 92.8371 199.949 92.9047 199.954C93.7309 199.928 94.5718 199.987 95.3683 200C96.7478 200.021 98.1232 200.046 99.5004 200.108C102.137 200.222 105.114 200.727 107.708 200.114C110.066 199.556 112.39 197.984 114.281 196.504C115.933 195.211 117.207 193.674 118.578 192.142C118.479 192.158 118.382 192.172 118.284 192.186L117.4 192.307C116.284 192.456 114.96 192.573 114.074 192.036C113.736 191.831 113.833 191.366 114.177 191.239C115.081 190.908 116.203 191.183 117.167 191.136C117.923 191.1 118.688 191.02 119.434 190.863C119.679 190.813 119.922 190.754 120.162 190.684C121.929 190.174 124.003 188.382 122.601 186.425C122.548 186.351 122.607 186.283 122.679 186.271C122.711 186.264 122.744 186.271 122.772 186.294C124.369 187.617 123.538 189.988 122.028 191.005C121.508 191.356 120.921 191.601 120.313 191.781C120.429 191.994 120.45 192.256 120.31 192.505C119.127 194.615 117.125 196.468 115.248 197.958C113.322 199.488 111.099 200.932 108.71 201.608C105.95 202.386 102.919 201.801 100.12 201.554C98.6026 201.42 97.0901 201.262 95.5753 201.086C95.1695 201.04 94.7492 201.004 94.3223 200.964C94.7239 201.492 95.0429 202.101 95.2521 202.467C95.9323 203.654 95.3049 205.218 93.9866 205.582C93.849 205.62 93.7075 205.641 93.5683 205.645C93.2131 206.357 92.368 206.882 91.5863 206.613C91.2464 206.497 90.9187 206.338 90.6042 206.148C85.6878 210.468 80.5117 214.522 75.188 218.322C65.3154 225.368 54.9673 231.804 44.2373 237.462C41.8204 238.736 39.385 239.977 36.929 241.169L34.8151 242.188C32.4753 243.314 30.0806 244.435 27.5957 245.134C27.1113 245.27 26.604 245.38 26.0843 245.464C26.0776 245.511 26.0759 245.556 26.0789 245.598C25.6117 245.661 25.204 245.67 24.8558 245.627L24.7766 245.616C21.7307 245.829 18.4728 245.085 16.5133 242.859C16.1866 243.089 15.7104 243.114 15.2902 242.784C13.1769 241.125 11.9171 238.6 10.8116 236.188C9.69057 233.742 8.81191 231.193 8.16628 228.582C6.8767 223.366 6.36522 217.986 6.33827 212.621C6.24078 191.947 11.4164 171.091 20.4063 152.531C22.6863 147.823 25.1995 143.204 27.9895 138.779C30.7719 134.366 34.0028 130.264 38.1405 127.046C39.3304 126.121 40.5682 125.275 41.8449 124.495C40.988 124.07 40.6476 122.99 40.5876 122.03C40.4545 119.898 40.7085 117.442 41.9562 115.643C43.7066 113.119 46.8399 111.564 49.7452 110.807C51.2619 110.412 52.8308 110.182 54.3952 110.104C55.2018 110.064 56.0399 110.197 56.8368 110.109C57.5399 110.033 57.9747 109.613 58.3791 109.061C59.4149 107.647 60.0893 106.163 61.5752 105.126C63.0997 104.062 65.0752 103.655 66.9118 103.766C69.0513 103.894 71.0032 104.738 72.8875 105.707C74.5882 106.581 76.239 107.55 77.8478 108.584C78.1428 107.892 78.4206 107.196 78.679 106.497C79.1801 105.142 79.6159 103.743 79.9696 102.343C80.3281 100.922 80.2757 99.0461 81.3587 97.9779C82.3003 97.0495 84.1136 97.414 84.4189 98.7863ZM157.408 193.569L157.4 193.571C155.209 194.87 154.162 198.115 153.131 199.533C153.215 200.008 153.274 200.492 153.391 200.943C153.657 201.976 154.005 203.001 154.409 203.986C155.119 205.726 156.008 207.383 156.83 209.069C157.491 210.425 158.139 211.806 158.644 213.234C158.589 213.289 158.538 213.354 158.495 213.434C157.949 214.459 157.521 214.257 156.512 214.034L156.511 214.031C155.934 212.265 155.102 210.606 154.354 208.91L154.172 208.497L153.992 208.082C153.368 206.632 152.797 205.167 152.465 203.612C152.254 202.621 152.167 201.602 152.155 200.59C151.608 201.04 150.95 201.363 150.122 201.488C148.35 201.756 146.746 200.645 145.302 199.755L144.976 199.555C144.073 199.005 143.176 198.497 142.134 198.237C140.951 197.942 139.728 197.942 138.526 197.791C138.382 197.772 138.237 197.753 138.091 197.73C138.56 199.284 138.777 200.97 139.056 202.526C139.445 204.707 139.762 206.907 140.066 209.101C140.658 213.353 141.07 217.639 141.279 221.928C141.481 226.08 141.379 230.216 141.229 234.367L141.154 236.392C141.094 238.04 141.045 239.69 141.074 241.338C141.154 241.344 141.234 241.357 141.315 241.376C142.147 241.571 142.715 242.42 143.476 242.799C145.081 243.597 147.021 243.587 148.73 243.183C152.618 242.261 155.85 239.548 157.979 236.232C160.536 232.254 161.474 227.573 161.444 222.889C161.409 217.618 160.556 212.578 159.368 207.49L159.291 207.165C158.292 202.926 157.666 193.61 157.408 193.569ZM48.5538 182.934C48.5759 184.352 47.9996 185.868 47.6829 187.246C47.3419 188.73 47.0018 190.214 46.657 191.698L46.3469 193.027C46.0887 194.135 45.8341 195.244 45.6059 196.358C45.4183 197.274 45.3397 198.482 45.0323 199.492C48.6888 198.012 52.3509 196.548 56.0069 195.073C60.5111 193.256 65.0364 191.489 69.5512 189.701C74.0491 187.921 78.5216 185.897 83.1106 184.375C84.2028 184.011 84.9423 185.755 83.8963 186.239C79.2357 188.401 74.3047 190.094 69.5301 191.988L62.6234 194.731C56.2919 197.244 49.9562 199.745 43.5885 202.16C39.2512 203.805 34.9308 205.497 30.566 207.059C28.485 207.803 26.3852 208.507 24.3146 209.278C22.5801 209.925 20.704 210.885 20.0618 212.749C20.028 212.846 19.8949 212.806 19.9097 212.706C20.1695 210.901 21.5092 209.773 23.0195 208.919C25.0242 207.783 27.226 206.956 29.3421 206.045L29.6301 205.92C33.9512 204.035 38.3071 202.226 42.6759 200.447C42.6326 200.342 42.607 200.228 42.6051 200.11L42.5926 200.113C42.5132 199.305 42.8835 198.585 43.15 197.833L43.9141 195.677C44.4233 194.241 44.88 192.787 45.3505 191.338C45.8426 189.823 46.3393 188.31 46.8351 186.797C47.2551 185.515 47.5373 183.987 48.2559 182.841C48.3425 182.703 48.5812 182.781 48.5538 182.934ZM132.699 179.746L132.645 180.022C132.581 180.344 132.522 180.668 132.507 180.993C132.465 181.845 132.562 182.697 132.788 183.519C133.01 184.332 133.32 185.119 133.762 185.84C134.18 186.518 134.787 187.051 135.173 187.746C135.213 187.82 135.238 187.894 135.249 187.966C135.397 187.905 135.543 187.85 135.684 187.805C136.863 187.431 138.067 187.118 139.288 186.884L139.095 186.871L138.97 186.861C136.929 186.688 135.004 186.02 135.42 183.637C135.656 182.29 136.713 181.387 137.845 180.747L137.987 180.668C138.048 180.634 138.112 180.6 138.173 180.571C137.148 180.397 136.405 180.184 135.148 179.973C134.332 179.835 133.515 179.759 132.699 179.746ZM39.49 150.394C41.4962 154.449 43.0055 158.76 44.1442 163.134C44.6939 165.247 45.1605 167.38 45.5356 169.53L45.6588 170.248L45.7289 170.638C46.0793 172.555 46.5244 174.631 46.0097 176.501C45.8417 177.112 44.8276 177.354 44.5437 176.693C43.6872 174.698 43.8076 172.405 43.5594 170.27C43.2985 168.029 42.9425 165.799 42.4988 163.588C41.6467 159.339 40.4505 155.189 39.1172 151.071L38.9685 150.614C38.8553 150.309 39.3484 150.108 39.49 150.394ZM116.603 168.534C116.005 168.815 115.407 169.073 114.879 169.331C114.839 169.352 114.796 169.371 114.754 169.392C115.352 169.291 115.952 169.196 116.552 169.107C116.546 168.912 116.565 168.72 116.603 168.534ZM139.997 166.503C139.907 166.532 139.828 166.58 139.759 166.644L139.725 166.678C139.643 166.755 139.584 166.845 139.55 166.95C139.498 167.051 139.473 167.16 139.478 167.276L139.508 167.501C139.548 167.644 139.62 167.768 139.725 167.874L139.896 168.006C140.011 168.073 140.135 168.11 140.266 168.119L140.323 168.121L140.494 168.121C140.592 168.118 140.684 168.094 140.77 168.048C140.86 168.019 140.939 167.972 141.008 167.907L141.042 167.874C141.124 167.797 141.182 167.706 141.216 167.602C141.262 167.515 141.286 167.423 141.289 167.325L141.289 167.276L141.259 167.051C141.224 166.926 141.164 166.815 141.08 166.718L141.042 166.678L140.871 166.546C140.756 166.479 140.632 166.441 140.501 166.432L140.444 166.43H140.323C140.206 166.426 140.098 166.45 139.997 166.503ZM134.5 166.217C134.051 166.3 133.797 166.844 133.91 167.257C134.036 167.714 134.47 167.917 134.906 167.855L134.949 167.848C135.46 167.754 135.961 167.79 136.447 167.969C136.875 168.127 137.373 167.792 137.487 167.379C137.616 166.907 137.326 166.497 136.896 166.339C136.125 166.054 135.298 166.07 134.5 166.217ZM45.4907 136.194C46.513 137.693 47.1512 139.685 47.7808 141.397L47.8438 141.568C48.5131 143.368 49.1587 145.182 49.7608 147.005C50.9627 150.646 52.5291 154.455 52.8185 158.301C52.872 159.011 51.7863 159.295 51.4715 158.666C50.567 156.858 50.0807 154.973 49.5456 153.034C49.0351 151.185 48.5034 149.342 47.9714 147.499C47.4396 145.657 46.9252 143.809 46.4015 141.965C45.8921 140.171 45.1829 138.176 45.0663 136.309C45.051 136.066 45.3732 136.021 45.4907 136.194ZM68.5631 124.129C69.9277 125.076 71.0453 126.462 72.2001 127.647C73.3715 128.85 74.5274 130.064 75.6725 131.292C77.5859 133.344 79.4647 135.43 81.4052 137.457C85.2722 141.497 89.647 145.215 94.984 147.113C96.2755 147.573 95.7097 149.646 94.4153 149.177C88.9563 147.197 84.4341 143.536 80.4452 139.395C78.3792 137.25 76.4835 134.958 74.6351 132.626C73.7702 131.534 72.9117 130.439 72.0653 129.333L71.5591 128.669C70.4949 127.264 69.1929 125.864 68.4141 124.278C68.3704 124.189 68.4663 124.062 68.5631 124.129Z" fill="#10100E"/>
<path fill-rule="evenodd" clip-rule="evenodd" d="M96.7186 12.4076C106.177 12.4076 117.526 16.9948 118.491 17.0866L118.517 17.088C119.025 17.088 121.008 18.5998 124.468 21.6235L120.721 28.9349L121.024 29.2246C122.475 30.6164 123.714 31.885 124.692 32.885C132.676 41.0504 134.111 73.11 132.229 84.2903C130.348 95.4705 126.863 106.411 110.638 106.411C94.4128 106.411 76.362 96.651 73.5814 93.6118C71.7277 91.5856 69.6455 90.6149 67.3348 90.6997C67.2398 90.5798 67.1456 90.4602 67.0521 90.3411L66.7122 90.2929C63.5142 89.8295 61.2227 89.2059 59.8379 88.4221C57.1331 86.8913 54.1601 78.8432 54.1601 77.0703C54.1601 75.3151 49.7207 62.547 49.6319 61.1958L49.6306 61.1584C49.6306 60.0289 43.8311 54.8365 43.8311 53.1875C43.8311 51.5385 42.6621 51.6386 43.8311 45.8278L44.1707 44.1207C45.4147 37.934 47.8495 27.6895 57.1331 23.238C67.3348 18.3463 87.1643 12.4076 96.7186 12.4076Z" fill="#FFFFE3"/>
<path fill-rule="evenodd" clip-rule="evenodd" d="M55.5584 23.0082C60.6463 17.6057 89.5311 9.24937 104.145 11.0207L104.583 11.0775C105.749 11.2255 106.899 11.4495 108.033 11.7538C111.699 12.6104 115.487 13.9075 118.516 16.074C121.045 17.8464 129.023 20.7409 126.672 25.3775C127.544 27.03 127.869 29.0717 127.28 30.6993C127.206 31.2615 127.032 31.7793 126.811 32.3161C128.673 35.066 130.148 38.1758 131.342 41.1336C133.428 48.5776 134.727 56.3244 134.917 63.9193C135.549 78.3486 133.968 95.5844 121.405 104.915C113.816 110.828 101.929 111.026 93.4006 103.695C92.9166 103.122 90.6406 101.576 91.4001 101.305C91.6262 101.544 91.8586 101.776 92.0952 102.005C92.0844 101.979 92.0823 101.954 92.0867 101.926L91.8642 101.725C91.4451 101.337 90.9021 100.774 91.5205 100.884C91.5478 100.916 91.5776 100.944 91.6069 100.975C91.7379 101.054 91.8369 101.122 91.9138 101.182L91.9535 101.214L91.9412 101.201C91.585 100.821 91.3714 100.434 91.904 100.681L91.9745 100.715C92.2114 100.965 92.452 101.204 92.6971 101.436C92.6931 101.409 92.6971 101.381 92.7121 101.352L92.4836 101.131C92.2605 100.912 92.2946 100.911 92.4036 100.734C91.9296 100.07 92.8145 100.465 92.8767 100.724C93.4304 100.593 93.9165 101.633 94.2731 101.759C109.907 113.783 132.594 103.114 132.227 69.6101L132.221 68.9546C132.114 58.2414 131.212 47.2302 126.783 37.5322C126.352 36.5981 125.87 35.6893 125.34 34.81C124.975 34.1506 124.584 33.5081 124.163 32.8825C122.987 32.7874 121.825 32.5718 120.68 32.2379C120.287 32.1386 119.898 32.0287 119.509 31.8997C113.83 32.2096 108.278 32.5467 102.583 32.8662L100.805 32.9771C95.9805 33.2873 90.9914 33.7843 87.0985 36.7693C83.2788 39.4868 83.2615 44.8456 79.9917 47.8292C75.329 50.995 75.295 53.8497 74.3971 58.5151C74.4636 62.032 76.9012 67.1418 72.4281 68.6219C73.1827 69.6983 72.1308 69.1811 72.048 68.8036C72.0395 68.8057 72.0311 68.8078 72.0248 68.8078C72.6972 70.0584 71.7087 69.2709 71.6212 68.8691C71.5684 68.8543 71.5156 68.8163 71.4628 68.7635C72.1403 69.8591 71.0451 69.0919 71.11 68.8924C69.8007 66.8793 67.1062 66.5667 65.2069 67.1001C65.1837 67.172 65.0994 67.1783 65.0466 67.1403C56.9705 68.8911 59.0542 85.6165 67.3304 83.9997C67.6847 83.9274 67.6762 84.0976 67.7466 84.1138C67.5554 83.6117 68.0943 83.816 68.0886 83.9215L68.1215 83.9199C68.1475 83.9176 68.1368 83.9148 68.1562 83.9215C67.9714 82.8945 69.0117 84.3825 68.9295 84.4435C68.9614 84.4245 68.9973 84.4139 69.029 84.4097L68.9932 84.3122C68.8205 83.8521 68.8353 84.0434 68.8365 83.7799C68.7068 83.4542 68.6973 83.5967 68.7277 83.3845C69.1836 83.0311 69.3182 84.1031 69.4703 84.1815C69.2096 83.8179 69.4169 83.521 69.6628 83.7184C71.5268 87.6406 73.9346 91.326 77.0464 94.2291C77.3867 94.4975 77.7311 94.7617 78.0879 95.011C79.4115 96.1644 81.4418 96.906 82.6809 97.9277C82.6809 97.9446 82.6726 97.9657 82.66 97.9869L82.6883 98.0125L82.717 98.0397L83.148 98.2468C83.2748 98.3546 83.3888 98.4751 83.49 98.6082C83.598 98.7329 83.6929 98.8703 83.7733 99.0161C83.8135 99.1937 83.7248 99.2676 83.5557 99.1916C83.4816 99.1662 83.4079 99.1366 83.3339 99.1091C83.3381 99.1155 83.34 99.1197 83.3445 99.1239C83.3687 99.1606 83.5328 99.5412 83.3437 99.4793L83.3212 99.4705C83.2175 99.4325 83.1142 99.3902 83.0128 99.3501C83.1332 99.5001 83.2429 99.6629 83.34 99.8002C83.4438 99.908 83.5069 100.035 83.5325 100.179C83.5281 100.259 83.4839 100.293 83.4036 100.282C83.2811 100.242 83.1607 100.2 83.04 100.155L83.0743 100.221C83.1596 100.388 83.2807 100.67 83.0656 100.576C82.8816 100.519 82.7043 100.453 82.5269 100.381C82.5119 100.411 82.4825 100.422 82.4234 100.394C81.8593 100.193 81.3142 99.9482 80.7924 99.6586C80.3339 99.3247 79.871 98.9971 79.4107 98.6653C78.9774 98.4053 78.5591 98.1158 78.16 97.7903C75.4883 96.064 73.1493 93.871 71.2938 91.4287C68.1905 94.1172 61.9857 91.5487 58.1476 89.4441C54.7528 87.5631 53.4184 84.0851 53.0734 80.3353C52.3562 75.287 48.2322 73.559 48.5191 62.4821C48.5128 62.4842 48.5062 62.4842 48.4978 62.4842C48.3478 62.4399 48.2022 62.3807 48.0649 62.3046C47.9233 62.237 47.7903 62.1567 47.6654 62.0594L47.5112 61.846C47.4311 61.8016 47.3593 61.7551 47.3043 61.7086L47.2758 61.7453C47.1857 61.8542 47.2463 61.6904 47.2515 61.6579L46.9836 61.2934C46.3483 60.4257 45.6514 59.4522 45.0837 58.6736L45.0658 58.7052C45.053 58.7291 45.0462 58.7464 45.0522 58.7539C43.7012 56.812 42.4306 54.4665 42.0776 52.1957C41.6607 50.4466 41.8236 48.6442 42.1872 47.024C43.7462 41.3503 48.8529 28.5112 55.5584 23.0082ZM92.2234 101.473L92.1387 101.397L92.2132 101.491C92.2522 101.539 92.2921 101.582 92.3572 101.626C92.3529 101.612 92.3529 101.597 92.3548 101.58C92.3117 101.547 92.2676 101.511 92.2234 101.473ZM104.08 13.8716C94.17 13.0192 84.4228 15.2033 74.966 17.8471L74.3137 18.0346C68.9364 19.5696 63.2506 20.9508 58.7064 24.2362C52.3576 29.1008 49.0792 36.8396 46.2182 43.9848C43.72 49.2934 44.9971 55.2795 48.7619 58.9864C49.1536 55.3028 49.8214 51.7269 50.865 48.1798C51.0829 47.6257 50.9181 47.4441 51.3875 47.3719C52.0965 56.9308 48.6045 63.9933 55.515 75.3221C58.5136 80.6675 55.0424 84.5788 63.51 87.3917L63.7392 87.4793C65.5033 88.1452 67.4298 88.6708 69.1576 88.2986L69.0028 88.0467C68.845 87.7873 68.7971 87.6613 69.0267 87.5504C69.0205 87.5377 69.0121 87.525 69.0034 87.5102C68.8177 87.1594 68.6381 86.8043 68.4668 86.445C68.3973 86.4683 68.3276 86.4852 68.2555 86.5042C68.3022 86.5909 68.3083 86.6775 68.1776 86.7071C67.712 86.8669 67.234 86.9309 66.7446 86.9009L66.6395 86.8931C66.0867 86.8593 65.7383 86.7585 65.4267 86.6648C65.3233 86.6479 65.2198 86.631 65.1182 86.6099C64.1157 86.3875 63.0545 85.822 62.3677 85.2615C54.5386 80.813 55.3477 65.6699 64.998 64.2384C65.196 54.704 69.7291 38.6186 77.2524 29.5333C84.0526 21.1763 102.618 17.5541 115.534 18.8313C115.722 18.8937 115.91 18.9567 116.098 19.0203C118.091 19.1974 119.99 20.0855 121.984 20.498C120.553 19.4246 118.928 18.7096 117.255 18.102C113.922 16.0622 110.1 14.9585 106.409 14.1801C105.644 13.992 104.868 13.8885 104.08 13.8716ZM64.5563 71.8978C65.0752 71.6158 65.0158 71.888 65.1352 71.809C68.8674 71.5044 72.8919 74.7734 74.9781 77.4985C74.8133 77.6697 74.3676 77.1625 74.2894 77.0822C74.2788 77.0928 74.2662 77.1012 74.2535 77.1054L74.3116 77.1875C75.1572 78.4014 73.4809 76.9729 73.3239 76.6785C73.2964 76.6933 73.269 76.7018 73.2373 76.6954C73.3702 76.8258 73.776 77.1659 73.8457 77.4077L73.9533 77.4972C74.9679 78.3664 74.8837 79.0202 73.7319 77.786C73.7591 77.843 73.7697 77.8959 73.7507 77.9382L73.7903 77.9646C74.3567 78.3606 74.8226 79.4644 73.6387 78.3313C73.7619 79.1589 72.4655 77.5592 72.4239 77.5704C70.1807 75.8088 66.8779 74.0956 64.064 73.8654L63.9672 73.8543C63.4509 73.7879 63.2067 73.6347 63.388 73.2969C62.7521 73.1456 62.901 72.8324 63.2021 72.8425C62.7536 72.5475 63.1573 72.2653 63.4176 72.3754C63.2386 71.8798 63.9563 72.2099 64.0218 72.1408C64.3943 71.5662 64.4946 72.0455 64.5563 71.8978ZM56.7331 41.178C58.5257 40.5211 63.8207 42.4875 63.3971 45.0918C63.1448 45.6897 62.3137 46.0323 61.7296 45.6948L60.9671 45.1825C59.6403 44.2936 58.4437 43.5141 57.0191 42.7388C56.2438 42.354 55.91 41.5369 56.7331 41.178ZM66.932 37.3079L66.2397 36.8572C62.5037 34.4111 57.2221 30.7047 66.5887 34.5394C67.6562 34.9974 69.0747 35.2684 69.6571 36.2854C70.5721 38.1599 68.1641 38.2858 66.932 37.3079ZM67.3518 26.3327C67.052 25.1946 70.7824 26.5301 71.8683 26.8822L72.0337 26.9447C73.0901 27.3385 74.3009 27.7038 74.9328 28.6157C75.673 29.8758 74.1747 30.1368 73.2466 29.5676C71.3437 28.3236 69.2575 27.385 67.3518 26.3327ZM76.8378 21.031C74.7381 18.7372 80.3575 20.9346 81.1993 21.5446L81.2233 21.5626C81.8514 22.0049 81.724 22.9577 81.1339 23.2375C79.455 23.2694 78.2195 21.8694 76.8378 21.031ZM86.3926 18.5178C83.0546 16.1179 87.4517 17.2594 88.9789 18.1999C90.0199 19.1183 88.9477 20.6685 86.3926 18.5178Z" fill="#10100E"/>
<path fill-rule="evenodd" clip-rule="evenodd" d="M107.969 91.9199C106.549 91.3403 105.282 90.3735 104.355 89.1385C104.033 88.7091 103.95 88.2557 104.017 87.841C104.093 87.3748 104.369 86.9522 104.745 86.6687C105.122 86.3844 105.594 86.2441 106.05 86.3156C106.447 86.3777 106.841 86.5949 107.154 87.0452L107.219 87.1352C107.77 87.8806 108.487 88.4923 109.305 88.8865C110.093 89.2664 110.975 89.4438 111.887 89.3406C113.625 89.1443 114.822 88.2043 116.095 86.9278C116.253 86.7667 116.411 86.6005 116.569 86.4316C116.669 86.2785 116.808 86.1801 116.963 86.1285C117.134 86.0711 117.328 86.0744 117.506 86.1364C117.677 86.1962 117.83 86.3095 117.933 86.4603C118.03 86.6036 118.086 86.7807 118.068 86.9844C117.951 88.3072 117.26 89.4878 116.278 90.4149C115.187 91.4444 113.741 92.1567 112.38 92.4065C110.881 92.6817 109.353 92.4846 107.969 91.9199ZM113.088 71.512C114.683 72.4821 117.114 74.7442 115.398 77.1493C113.377 79.2698 110.469 76.8384 109.035 75.7388C107.706 74.8866 106.213 77.0784 107.446 78.0735C117.803 85.7445 122.007 71.7657 113.895 70.3714C113.001 70.2178 112.67 71.2119 113.088 71.512ZM94.5275 62.5887C94.7038 60.3999 98.0361 59.9028 98.3675 62.0687C98.6644 64.0089 98.3149 65.7913 97.4413 67.5381C96.6066 69.2069 94.5086 68.4283 94.35 66.9087C94.1373 64.8717 94.4179 63.9502 94.5275 62.5887ZM119.893 61.6196C120.358 61.011 121.028 60.5954 121.832 60.8302C124.343 61.5643 123.603 65.1304 122.721 66.8662C122.242 67.8088 120.693 68.0479 119.993 67.2179C118.852 65.8644 118.306 63.1614 119.756 61.8282C119.796 61.7593 119.839 61.6898 119.893 61.6196ZM97.406 53.0111L97.8026 52.9417C99.0296 52.7294 100.555 52.5254 101.423 53.5122C101.884 54.0355 102.042 55.0082 101.423 55.5091C100.335 56.3904 99.1314 56.0489 97.827 56.1235C96.7521 56.1852 95.719 56.3632 94.6836 56.6593C92.412 57.3087 90.5611 58.4944 88.621 59.7963C88.3665 59.9671 88.1066 59.6414 88.2281 59.4032C89.348 57.2088 91.5184 55.4062 93.6923 54.3073C94.8526 53.7208 96.1223 53.2343 97.406 53.0111ZM117.604 52.0281L117.908 52.0903C121.211 52.7811 125.504 54.1611 127.068 57.4073C127.128 57.8663 127.065 57.9647 127.013 58.029L126.996 58.0504C126.954 58.1053 126.921 58.1809 126.722 58.2434C126.666 58.2302 126.611 58.2163 126.554 58.2015C125.837 58.0135 125.27 57.7545 124.721 57.4858L124.125 57.1923C123.434 56.8533 122.737 56.5268 121.998 56.2857C120.422 55.7712 118.8 55.4089 117.154 55.2154C116.797 55.1735 116.453 55.053 116.182 54.8464C115.924 54.6504 115.728 54.379 115.638 54.0182C115.522 53.5513 115.555 53.1979 115.806 52.7767C115.994 52.4603 116.264 52.2411 116.573 52.1152C116.888 51.9869 117.247 51.9566 117.604 52.0281Z" fill="#10100E"/>
<path fill-rule="evenodd" clip-rule="evenodd" d="M96.8714 92.1191C98.5819 88.1103 102.315 85.1641 106.613 84.087C109.77 83.298 113.082 83.3232 116.3 83.6363C117.986 83.7993 119.794 83.9328 121.382 84.559C122.739 85.0941 123.845 86.1054 124.676 87.2926C125.665 88.6994 126.339 90.3095 126.811 91.9598C126.878 92.1944 126.941 92.4307 127 92.6683C126.795 93.9135 126.358 94.9732 125.206 95.7561C124.081 96.5205 122.738 96.8332 121.4 96.9443C121.269 96.8812 121.142 96.8165 121.026 96.7501C118.941 95.5559 117.473 92.7339 114.841 93.1158C112.493 93.4569 110.946 96.4132 109.55 98.1469C105.066 98.6695 100.586 97.3217 96.9381 94.757C96.7528 93.8792 96.7421 92.9939 96.8714 92.1191ZM130.047 89.0781C129.689 88.0712 129.237 87.096 128.702 86.1774C126.931 83.1394 124.214 80.7187 120.988 79.335C113.356 76.0661 103.482 78.3704 97.3193 83.7316C95.2141 85.5642 93.0855 88.2574 92.4417 91.1543C92.2495 91.1924 92.0681 91.2924 91.9187 91.4334C87.466 88.6289 82.8806 85.9307 79.2926 82.0432C76.6869 79.2186 74.8745 75.8759 73.7647 72.2028C73.674 71.9004 73.1866 71.9446 73.2014 72.2791C73.2056 72.3574 73.2098 72.4355 73.2141 72.5138C73.1676 72.3699 72.9482 72.444 72.9313 72.5836C72.3342 77.0457 71.5873 81.7766 72.2752 86.262C72.6866 88.9384 73.9019 90.8979 75.5265 93.0136C77.2671 95.2815 79.2377 97.3909 81.2527 99.4138C82.5313 100.698 83.8668 102.179 85.4323 103.12C87.2531 104.214 89.3187 105.046 91.2619 105.89C93.2389 106.751 95.2453 107.547 97.2898 108.236C101.377 109.62 105.601 110.576 109.898 110.995C113.34 111.33 117.272 111.694 120.57 110.399C123.098 109.406 125.138 107.612 126.756 105.454C128.518 103.103 129.911 100.426 130.681 97.6025C131.481 94.6696 130.216 89.551 130.047 89.0781Z" fill="#10100E"/>
<path fill-rule="evenodd" clip-rule="evenodd" d="M127.574 73.4867C124.404 75.0143 119.98 72.7611 117.848 70.401C117.072 69.5416 116.474 67.083 116.772 65.5236C117.581 61.3007 120.619 58.7661 123.826 57.9007C128.272 56.7006 132.746 59.7407 132.224 63.3281C131.73 66.7281 130.981 71.66 127.574 73.4867ZM105.993 65.3746C105.739 69.9768 102.045 74.0049 97.6292 75.1984C90.515 77.1843 86.9991 72.1814 85.4065 66.7917C85.2483 66.2562 84.8762 64.6216 85.8745 63.2195C89.8005 57.7043 99.3525 58.6444 104.123 60.1585C105.52 61.4945 106.091 63.4226 105.993 65.3746ZM131.019 57.437C131.017 57.4397 131.015 57.442 131.013 57.4448C130.996 57.4348 130.98 57.4247 130.964 57.415C130.982 57.4226 131.001 57.4291 131.019 57.437ZM136.972 57.9689C136.558 53.2833 121.862 55.0774 120.144 55.4615C115.454 56.8412 111.404 60.5947 106.161 58.9447C100.729 52.8868 82.4357 54.6241 78.6007 57.71C77.8748 57.4251 76.9921 57.5779 76.0569 57.8468C71.2539 57.6732 49.3277 59.3296 53.8125 65.4619C54.4932 65.9343 55.1733 65.4537 55.1921 64.4806C78.5716 56.0378 76.3053 63.9459 79.078 63.0223C79.5014 63.1443 79.9431 63.2214 80.3295 63.3026C82.4756 63.9933 83.2043 63.7798 83.4869 66.1898C85.4291 84.7994 110.201 78.3765 108.17 63.1119C110.181 63.0012 111.941 62.1311 114.068 62.9807C115.545 77.3603 127.112 77.9407 130.593 72.956C133.218 69.4962 132.177 64.275 135.786 61.5532C137.21 62.7457 137.302 58.7211 136.972 57.9689Z" fill="#10100E"/>
</svg>
