<svg width="39" height="102" viewBox="0 0 39 102" fill="none" xmlns="http://www.w3.org/2000/svg">
<path d="M0.113996 94.188H15.822C13.918 93.46 12.602 92.452 11.874 91.164C11.146 89.848 10.782 88.476 10.782 87.048C10.782 85.984 10.922 85.102 11.202 84.402C11.482 83.674 11.874 83.072 12.378 82.596C12.938 82.064 13.638 81.686 14.478 81.462C15.318 81.238 16.452 81.126 17.88 81.126H29.094C30.27 81.126 31.068 80.888 31.488 80.412C31.908 79.908 32.118 79.082 32.118 77.934H33C32.972 78.41 32.944 79.138 32.916 80.118C32.86 81.098 32.832 82.05 32.832 82.974C32.832 83.898 32.86 84.808 32.916 85.704C32.944 86.572 32.972 87.23 33 87.678H32.118C32.118 86.67 31.908 85.956 31.488 85.536C31.068 85.116 30.27 84.906 29.094 84.906H16.956C16.088 84.906 15.29 84.976 14.562 85.116C13.834 85.256 13.246 85.578 12.798 86.082C12.35 86.558 12.126 87.3 12.126 88.308C12.126 89.456 12.448 90.478 13.092 91.374C13.736 92.242 14.632 92.928 15.78 93.432C16.928 93.936 18.244 94.188 19.728 94.188H29.094C30.27 94.188 31.068 93.978 31.488 93.558C31.908 93.138 32.118 92.424 32.118 91.416H33C32.972 91.864 32.944 92.536 32.916 93.432C32.86 94.3 32.832 95.196 32.832 96.12C32.832 97.044 32.86 97.996 32.916 98.976C32.944 99.956 32.972 100.684 33 101.16H32.118C32.118 100.012 31.908 99.2 31.488 98.724C31.068 98.22 30.27 97.968 29.094 97.968H5.154C3.894 97.968 2.97 98.192 2.382 98.64C1.766 99.088 1.458 99.928 1.458 101.16H0.575998C0.659997 100.264 0.701996 99.396 0.701996 98.556C0.701996 97.744 0.659997 96.974 0.575998 96.246C0.463998 95.49 0.309997 94.804 0.113996 94.188ZM10.782 65.8846C10.782 63.4206 11.538 61.5026 13.05 60.1306C14.534 58.7306 16.858 58.0306 20.022 58.0306V72.8566L19.224 72.8986V62.0626C17.852 62.0066 16.592 62.1186 15.444 62.3986C14.268 62.6786 13.33 63.1266 12.63 63.7426C11.93 64.3306 11.58 65.1006 11.58 66.0526C11.58 67.3406 12.224 68.4886 13.512 69.4966C14.8 70.4766 16.844 71.0646 19.644 71.2606L19.812 71.1346C20.232 71.1906 20.694 71.2326 21.198 71.2606C21.702 71.2886 22.206 71.3026 22.71 71.3026C24.614 71.3026 26.252 70.9946 27.624 70.3786C28.996 69.7626 30.046 68.9646 30.774 67.9846C31.474 66.9766 31.824 65.9406 31.824 64.8766C31.824 64.0366 31.698 63.2386 31.446 62.4826C31.166 61.7266 30.718 61.0266 30.102 60.3826C29.486 59.7386 28.66 59.1786 27.624 58.7026L27.96 57.8626C28.884 58.1706 29.78 58.6746 30.648 59.3746C31.516 60.0746 32.23 60.9566 32.79 62.0206C33.322 63.0846 33.588 64.3166 33.588 65.7166C33.588 67.7326 33.126 69.4686 32.202 70.9246C31.278 72.3526 30.004 73.4586 28.38 74.2426C26.728 74.9986 24.838 75.3766 22.71 75.3766C20.246 75.3766 18.132 74.9846 16.368 74.2006C14.576 73.4166 13.204 72.3106 12.252 70.8826C11.272 69.4546 10.782 67.7886 10.782 65.8846ZM0.0719969 48.1665H29.094C30.27 48.1665 31.068 47.9285 31.488 47.4525C31.908 46.9485 32.118 46.1225 32.118 44.9745H33C32.972 45.4505 32.944 46.1785 32.916 47.1585C32.86 48.1105 32.832 49.0765 32.832 50.0565C32.832 51.0085 32.86 51.9745 32.916 52.9545C32.944 53.9345 32.972 54.6625 33 55.1385H32.118C32.118 53.9905 31.908 53.1785 31.488 52.7025C31.068 52.1985 30.27 51.9465 29.094 51.9465H5.112C3.852 51.9465 2.928 52.1705 2.34 52.6185C1.724 53.0665 1.416 53.9065 1.416 55.1385H0.533996C0.617996 54.2425 0.659997 53.3745 0.659997 52.5345C0.659997 51.7225 0.617996 50.9525 0.533996 50.2245C0.421997 49.4685 0.267998 48.7825 0.0719969 48.1665ZM0.0719969 36.1489H29.094C30.27 36.1489 31.068 35.9109 31.488 35.4349C31.908 34.9309 32.118 34.1049 32.118 32.9569H33C32.972 33.4329 32.944 34.1609 32.916 35.1409C32.86 36.0929 32.832 37.0589 32.832 38.0389C32.832 38.9909 32.86 39.9569 32.916 40.9369C32.944 41.9169 32.972 42.6449 33 43.1209H32.118C32.118 41.9729 31.908 41.1609 31.488 40.6849C31.068 40.1809 30.27 39.9289 29.094 39.9289H5.112C3.852 39.9289 2.928 40.1529 2.34 40.6009C1.724 41.0489 1.416 41.8889 1.416 43.1209H0.533996C0.617996 42.2249 0.659997 41.3569 0.659997 40.5169C0.659997 39.7049 0.617996 38.9349 0.533996 38.2069C0.421997 37.4509 0.267998 36.7649 0.0719969 36.1489ZM10.782 20.9295C10.782 19.1375 11.174 17.5275 11.958 16.0995C12.742 14.6715 13.974 13.5375 15.654 12.6975C17.334 11.8295 19.518 11.3955 22.206 11.3955C24.894 11.3955 27.078 11.8295 28.758 12.6975C30.41 13.5375 31.628 14.6715 32.412 16.0995C33.196 17.5275 33.588 19.1375 33.588 20.9295C33.588 22.6935 33.196 24.3035 32.412 25.7595C31.628 27.1875 30.41 28.3355 28.758 29.2035C27.078 30.0435 24.894 30.4635 22.206 30.4635C19.518 30.4635 17.334 30.0435 15.654 29.2035C13.974 28.3355 12.742 27.1875 11.958 25.7595C11.174 24.3035 10.782 22.6935 10.782 20.9295ZM11.622 20.9295C11.622 22.5255 12.448 23.8415 14.1 24.8775C15.752 25.8855 18.454 26.3895 22.206 26.3895C25.958 26.3895 28.66 25.8855 30.312 24.8775C31.936 23.8415 32.748 22.5255 32.748 20.9295C32.748 19.3335 31.936 18.0315 30.312 17.0235C28.66 15.9875 25.958 15.4695 22.206 15.4695C18.454 15.4695 15.752 15.9875 14.1 17.0235C12.448 18.0315 11.622 19.3335 11.622 20.9295ZM28.212 4.13575C28.212 3.51975 28.338 3.01575 28.59 2.62375C28.842 2.23175 29.164 1.90975 29.556 1.65775C30.004 1.34975 30.494 1.15375 31.026 1.06975C31.558 0.985746 31.992 0.943746 32.328 0.943746C33.7 0.943746 34.946 1.29375 36.066 1.99375C37.186 2.69375 38.096 3.78575 38.796 5.26975L38.04 5.64775C37.676 4.77975 37.102 4.03775 36.318 3.42175C35.534 2.77775 34.736 2.45575 33.924 2.45575C33.588 2.45575 33.294 2.49775 33.042 2.58175C33.406 3.02975 33.588 3.54775 33.588 4.13575C33.588 4.86375 33.35 5.49375 32.874 6.02575C32.398 6.55775 31.74 6.82375 30.9 6.82375C30.116 6.82375 29.472 6.55775 28.968 6.02575C28.464 5.49375 28.212 4.86375 28.212 4.13575Z" fill="#10100E"/>
</svg>
